<svg width="443" height="329" viewBox="0 0 443 329" fill="none" xmlns="http://www.w3.org/2000/svg">
<path d="M430.881 319.651C431.271 320.042 431.904 320.042 432.295 319.651L438.659 313.287C439.049 312.897 439.049 312.264 438.659 311.873C438.268 311.483 437.635 311.483 437.244 311.873L431.588 317.53L425.931 311.873C425.54 311.483 424.907 311.483 424.517 311.873C424.126 312.264 424.126 312.897 424.517 313.287L430.881 319.651ZM431.588 63.5794L430.588 63.5794L430.588 318.944L431.588 318.944L432.588 318.944L432.588 63.5794L431.588 63.5794Z" fill="#649FE3"/>
<path d="M197.881 318.651C198.271 319.042 198.904 319.042 199.295 318.651L205.659 312.287C206.049 311.897 206.049 311.264 205.659 310.873C205.268 310.483 204.635 310.483 204.245 310.873L198.588 316.53L192.931 310.873C192.54 310.483 191.907 310.483 191.517 310.873C191.126 311.264 191.126 311.897 191.517 312.287L197.881 318.651ZM198.588 187.327L197.588 187.327L197.588 317.944L198.588 317.944L199.588 317.944L199.588 187.327L198.588 187.327Z" fill="#649FE3"/>
</svg>
