<svg width="444" height="330" viewBox="0 0 444 330" fill="none" xmlns="http://www.w3.org/2000/svg">
<path d="M431.23 320.242C431.621 320.632 432.254 320.632 432.644 320.242L439.008 313.878C439.399 313.487 439.399 312.854 439.008 312.464C438.618 312.073 437.985 312.073 437.594 312.464L431.937 318.121L426.28 312.464C425.89 312.073 425.257 312.073 424.866 312.464C424.476 312.854 424.476 313.487 424.866 313.878L431.23 320.242ZM431.937 64.1699L430.937 64.1699L430.937 319.535L431.937 319.535L432.937 319.535L432.937 64.1699L431.937 64.1699Z" fill="#DD8136"/>
<path d="M198.23 319.242C198.621 319.632 199.254 319.632 199.644 319.242L206.008 312.878C206.399 312.487 206.399 311.854 206.008 311.464C205.618 311.073 204.985 311.073 204.594 311.464L198.937 317.121L193.28 311.464C192.89 311.073 192.257 311.073 191.866 311.464C191.476 311.854 191.476 312.487 191.866 312.878L198.23 319.242ZM198.937 187.918L197.937 187.918L197.937 318.535L198.937 318.535L199.937 318.535L199.937 187.918L198.937 187.918Z" fill="#DD8136"/>
</svg>
