<svg width="584" height="371" viewBox="0 0 584 371" fill="none" xmlns="http://www.w3.org/2000/svg">
<path d="M44.6549 275.869H172.164C173.544 275.87 174.664 276.989 174.664 278.369V286.983C174.663 288.363 173.544 289.483 172.164 289.483H44.6549C43.2743 289.483 42.1551 288.363 42.1549 286.983V278.369C42.1549 277.075 43.1385 276.01 44.399 275.882L44.6549 275.869Z" fill="#3B96FF" fill-opacity="0.1" stroke="#649FE3"/>
<path d="M44.6549 180.242H172.164C173.544 180.242 174.664 181.361 174.664 182.742V191.355C174.663 192.735 173.544 193.855 172.164 193.855H44.6549C43.2743 193.855 42.1551 192.736 42.1549 191.355V182.742C42.1549 181.447 43.1385 180.383 44.399 180.254L44.6549 180.242Z" fill="#3B96FF" fill-opacity="0.1" stroke="#649FE3"/>
<path d="M44.6549 84.2418H172.164C173.544 84.2419 174.664 85.3612 174.664 86.7418V95.355C174.663 96.7355 173.544 97.8549 172.164 97.855H44.6549C43.2743 97.855 42.1551 96.7356 42.1549 95.355V86.7418C42.1549 85.4474 43.1385 84.3826 44.399 84.2545L44.6549 84.2418Z" fill="#3B96FF" fill-opacity="0.1" stroke="#649FE3"/>
</svg>
