<svg width="585" height="371" viewBox="0 0 585 371" fill="none" xmlns="http://www.w3.org/2000/svg">
<rect x="43.0382" y="99.0455" width="132.508" height="13.6129" stroke="#DD8136"/>
<rect x="43.0382" y="194.418" width="132.508" height="13.6129" stroke="#DD8136"/>
<rect x="43.0382" y="289.79" width="132.508" height="13.6129" stroke="#DD8136"/>
<rect x="43.0382" y="113.658" width="132.508" height="13.6129" stroke="#DD8136"/>
<rect x="43.0382" y="209.031" width="132.508" height="13.6129" stroke="#DD8136"/>
<rect x="43.0382" y="304.403" width="132.508" height="13.6129" stroke="#DD8136"/>
<rect x="43.0382" y="128.271" width="132.508" height="13.6129" stroke="#DD8136"/>
<rect x="43.0382" y="223.644" width="132.508" height="13.6129" stroke="#DD8136"/>
<rect x="43.0382" y="319.016" width="132.508" height="13.6129" stroke="#DD8136"/>
<rect x="43.0382" y="142.884" width="132.508" height="13.6129" stroke="#DD8136"/>
<rect x="43.0382" y="238.257" width="132.508" height="13.6129" stroke="#DD8136"/>
<rect x="43.0382" y="333.629" width="132.508" height="13.6129" stroke="#DD8136"/>
<rect x="43.0382" y="157.497" width="132.508" height="13.6129" stroke="#DD8136"/>
<rect x="43.0382" y="252.869" width="132.508" height="13.6129" stroke="#DD8136"/>
<rect x="43.0382" y="348.242" width="132.508" height="13.6129" stroke="#DD8136"/>
</svg>
