<svg width="584" height="371" viewBox="0 0 584 371" fill="none" xmlns="http://www.w3.org/2000/svg">
<g clip-path="url(#clip0_19_70)">
<path d="M177.696 68.3978H581C582.381 68.3981 583.5 69.5173 583.5 70.8978V154.38C583.5 155.761 582.381 156.88 581 156.88H177.696C176.315 156.88 175.196 155.761 175.196 154.38V70.8978C175.196 69.5171 176.315 68.3978 177.696 68.3978Z" fill="#3B96FF" fill-opacity="0.1" stroke="#649FE3"/>
<path d="M177.696 159.88H581C582.381 159.88 583.5 161 583.5 162.38V193.872C583.5 195.253 582.381 196.372 581 196.372H177.696C176.315 196.372 175.196 195.253 175.196 193.872V162.38L175.208 162.124C175.337 160.864 176.401 159.88 177.696 159.88Z" fill="#3B96FF" fill-opacity="0.1" stroke="#649FE3"/>
<path d="M177.696 219.369H581C582.381 219.369 583.5 220.488 583.5 221.869V241.863C583.5 243.243 582.381 244.362 581 244.363H177.696C176.315 244.363 175.196 243.243 175.196 241.863V221.869C175.196 220.488 176.315 219.369 177.696 219.369Z" fill="#3B96FF" fill-opacity="0.1" stroke="#649FE3"/>
</g>
<defs>
<clipPath id="clip0_19_70">
<rect width="584" height="371" fill="white"/>
</clipPath>
</defs>
</svg>
