<svg width="584" height="371" viewBox="0 0 584 371" fill="none" xmlns="http://www.w3.org/2000/svg">
<path d="M44.6549 99.0455H172.164C173.544 99.0457 174.664 100.165 174.664 101.545V110.159C174.663 111.539 173.544 112.659 172.164 112.659H44.6549C43.2743 112.659 42.1551 111.539 42.1549 110.159V101.545C42.1549 100.251 43.1385 99.1863 44.399 99.0582L44.6549 99.0455Z" fill="#3B96FF" fill-opacity="0.1" stroke="#649FE3"/>
<path d="M44.6549 194.418H172.164C173.544 194.418 174.664 195.537 174.664 196.918V205.531C174.663 206.912 173.544 208.031 172.164 208.031H44.6549C43.2743 208.031 42.1551 206.912 42.1549 205.531V196.918C42.1549 195.624 43.1385 194.559 44.399 194.431L44.6549 194.418Z" fill="#3B96FF" fill-opacity="0.1" stroke="#649FE3"/>
<path d="M44.6549 289.79H172.164C173.544 289.79 174.664 290.91 174.664 292.29V300.904C174.663 302.284 173.544 303.403 172.164 303.404H44.6549C43.2743 303.404 42.1551 302.284 42.1549 300.904V292.29C42.1549 290.996 43.1385 289.931 44.399 289.803L44.6549 289.79Z" fill="#3B96FF" fill-opacity="0.1" stroke="#649FE3"/>
<path d="M44.6549 113.658H172.164C173.544 113.659 174.664 114.778 174.664 116.158V124.772C174.663 126.152 173.544 127.271 172.164 127.272H44.6549C43.2743 127.272 42.1551 126.152 42.1549 124.772V116.158C42.1549 114.864 43.1385 113.799 44.399 113.671L44.6549 113.658Z" fill="#3B96FF" fill-opacity="0.1" stroke="#649FE3"/>
<path d="M44.6549 209.031H172.164C173.544 209.031 174.664 210.15 174.664 211.531V220.144C174.663 221.525 173.544 222.644 172.164 222.644H44.6549C43.2743 222.644 42.1551 221.525 42.1549 220.144V211.531C42.1549 210.236 43.1385 209.172 44.399 209.044L44.6549 209.031Z" fill="#3B96FF" fill-opacity="0.1" stroke="#649FE3"/>
<path d="M44.6549 304.403H172.164C173.544 304.403 174.664 305.523 174.664 306.903V315.516C174.663 316.897 173.544 318.016 172.164 318.016H44.6549C43.2743 318.016 42.1551 316.897 42.1549 315.516V306.903C42.1549 305.609 43.1385 304.544 44.399 304.416L44.6549 304.403Z" fill="#3B96FF" fill-opacity="0.1" stroke="#649FE3"/>
<path d="M44.6549 128.271H172.164C173.544 128.271 174.664 129.391 174.664 130.771V139.384C174.663 140.765 173.544 141.884 172.164 141.884H44.6549C43.2743 141.884 42.1551 140.765 42.1549 139.384V130.771C42.1549 129.477 43.1385 128.412 44.399 128.284L44.6549 128.271Z" fill="#3B96FF" fill-opacity="0.1" stroke="#649FE3"/>
<path d="M44.6549 223.644H172.164C173.544 223.644 174.664 224.763 174.664 226.144V234.757C174.663 236.137 173.544 237.257 172.164 237.257H44.6549C43.2743 237.257 42.1551 236.137 42.1549 234.757V226.144C42.1549 224.849 43.1385 223.785 44.399 223.656L44.6549 223.644Z" fill="#3B96FF" fill-opacity="0.1" stroke="#649FE3"/>
<path d="M44.6549 319.016H172.164C173.544 319.016 174.664 320.135 174.664 321.516V330.129C174.663 331.51 173.544 332.629 172.164 332.629H44.6549C43.2743 332.629 42.1551 331.51 42.1549 330.129V321.516C42.1549 320.222 43.1385 319.157 44.399 319.029L44.6549 319.016Z" fill="#3B96FF" fill-opacity="0.1" stroke="#649FE3"/>
<path d="M44.6549 142.884H172.164C173.544 142.884 174.664 144.003 174.664 145.384V153.997C174.663 155.378 173.544 156.497 172.164 156.497H44.6549C43.2743 156.497 42.1551 155.378 42.1549 153.997V145.384C42.1549 144.09 43.1385 143.025 44.399 142.897L44.6549 142.884Z" fill="#3B96FF" fill-opacity="0.1" stroke="#649FE3"/>
<path d="M44.6549 238.257H172.164C173.544 238.257 174.664 239.376 174.664 240.757V249.37C174.663 250.75 173.544 251.87 172.164 251.87H44.6549C43.2743 251.87 42.1551 250.75 42.1549 249.37V240.757C42.1549 239.462 43.1385 238.397 44.399 238.269L44.6549 238.257Z" fill="#3B96FF" fill-opacity="0.1" stroke="#649FE3"/>
<path d="M44.6549 333.629H172.164C173.544 333.629 174.664 334.748 174.664 336.129V344.742C174.663 346.123 173.544 347.242 172.164 347.242H44.6549C43.2743 347.242 42.1551 346.123 42.1549 344.742V336.129C42.1549 334.835 43.1385 333.77 44.399 333.642L44.6549 333.629Z" fill="#3B96FF" fill-opacity="0.1" stroke="#649FE3"/>
<path d="M44.6549 157.497H172.164C173.544 157.497 174.664 158.616 174.664 159.997V168.61C174.663 169.991 173.544 171.11 172.164 171.11H44.6549C43.2743 171.11 42.1551 169.991 42.1549 168.61V159.997C42.1549 158.703 43.1385 157.638 44.399 157.51L44.6549 157.497Z" fill="#3B96FF" fill-opacity="0.1" stroke="#649FE3"/>
<path d="M44.6549 252.869H172.164C173.544 252.87 174.664 253.989 174.664 255.369V263.983C174.663 265.363 173.544 266.483 172.164 266.483H44.6549C43.2743 266.483 42.1551 265.363 42.1549 263.983V255.369C42.1549 254.075 43.1385 253.01 44.399 252.882L44.6549 252.869Z" fill="#3B96FF" fill-opacity="0.1" stroke="#649FE3"/>
<path d="M44.6549 348.242H172.164C173.544 348.242 174.664 349.361 174.664 350.742V359.355C174.663 360.735 173.544 361.855 172.164 361.855H44.6549C43.2743 361.855 42.1551 360.736 42.1549 359.355V350.742C42.1549 349.447 43.1385 348.383 44.399 348.254L44.6549 348.242Z" fill="#3B96FF" fill-opacity="0.1" stroke="#649FE3"/>
</svg>
